HIERARCHY
ROOT Hips
{
  OFFSET -144.176 72.7981 1367.87
  CHANNELS 6 Xposition Yposition Zposition Zrotation Xrotation Yrotation
  JOINT Spine
  {
    OFFSET 0 8 0
    CHANNELS 6 Xposition Yposition Zposition Zrotation Xrotation Yrotation
    JOINT Spine1
    {
      OFFSET 0 8 0
      CHANNELS 6 Xposition Yposition Zposition Zrotation Xrotation Yrotation
      JOINT Spine2
      {
        OFFSET 0 8 0
        CHANNELS 6 Xposition Yposition Zposition Zrotation Xrotation Yrotation
        JOINT Spine3
        {
          OFFSET 0 8 0
          CHANNELS 6 Xposition Yposition Zposition Zrotation Xrotation Yrotation
          JOINT Neck
          {
            OFFSET 0 17 0
            CHANNELS 6 Xposition Yposition Zposition Zrotation Xrotation Yrotation
            JOINT Head
            {
              OFFSET 0 10.8 0
              CHANNELS 6 Xposition Yposition Zposition Zrotation Xrotation Yrotation
              End Site
              {
                OFFSET 0 20.25 0
              }
            }
          }
          JOINT LeftShoulder
          {
            OFFSET 5 17 0
            CHANNELS 6 Xposition Yposition Zposition Zrotation Xrotation Yrotation
            JOINT LeftShoulder2
            {
              OFFSET 6.45 0 0
              CHANNELS 6 Xposition Yposition Zposition Zrotation Xrotation Yrotation
              JOINT LeftArm
              {
                OFFSET 6.45 0 0
                CHANNELS 6 Xposition Yposition Zposition Zrotation Xrotation Yrotation
                JOINT LeftForeArm
                {
                  OFFSET 0 -32.4 -2
                  CHANNELS 6 Xposition Yposition Zposition Zrotation Xrotation Yrotation
                  JOINT LeftHand
                  {
                    OFFSET 0 -25.65 2
                    CHANNELS 6 Xposition Yposition Zposition Zrotation Xrotation Yrotation
                    JOINT LeftHandThumb1
                    {
                      OFFSET -0.5 -1.5 2.65
                      CHANNELS 6 Xposition Yposition Zposition Zrotation Xrotation Yrotation
                      JOINT LeftHandThumb2
                      {
                        OFFSET 0 -3.8 3.7
                        CHANNELS 6 Xposition Yposition Zposition Zrotation Xrotation Yrotation
                        JOINT LeftHandThumb3
                        {
                          OFFSET 0 -3 2.7
                          CHANNELS 6 Xposition Yposition Zposition Zrotation Xrotation Yrotation
                          End Site
                          {
                            OFFSET 0 -2.3 1.8
                          }
                        }
                      }
                    }
                    JOINT LeftHandIndex
                    {
                      OFFSET 0 -1.9 1.6
                      CHANNELS 6 Xposition Yposition Zposition Zrotation Xrotation Yrotation
                      JOINT LeftHandIndex1
                      {
                        OFFSET 0 -8.3 1.9
                        CHANNELS 6 Xposition Yposition Zposition Zrotation Xrotation Yrotation
                        JOINT LeftHandIndex2
                        {
                          OFFSET 0 -4.5 0
                          CHANNELS 6 Xposition Yposition Zposition Zrotation Xrotation Yrotation
                          JOINT LeftHandIndex3
                          {
                            OFFSET 0 -3.4 0
                            CHANNELS 6 Xposition Yposition Zposition Zrotation Xrotation Yrotation
                            End Site
                            {
                              OFFSET 0 -2.6 0
                            }
                          }
                        }
                      }
                    }
                    JOINT LeftHandMiddle
                    {
                      OFFSET -0.25 -2.2 0.4
                      CHANNELS 6 Xposition Yposition Zposition Zrotation Xrotation Yrotation
                      JOINT LeftHandMiddle1
                      {
                        OFFSET 0 -8.3 1
                        CHANNELS 6 Xposition Yposition Zposition Zrotation Xrotation Yrotation
                        JOINT LeftHandMiddle2
                        {
                          OFFSET 0 -4.65 0
                          CHANNELS 6 Xposition Yposition Zposition Zrotation Xrotation Yrotation
                          JOINT LeftHandMiddle3
                          {
                            OFFSET 0 -3.3 0
                            CHANNELS 6 Xposition Yposition Zposition Zrotation Xrotation Yrotation
                            End Site
                            {
                              OFFSET 0 -2.7 0
                            }
                          }
                        }
                      }
                    }
                    JOINT LeftHandRing
                    {
                      OFFSET -0.5 -2.15 -0.8
                      CHANNELS 6 Xposition Yposition Zposition Zrotation Xrotation Yrotation
                      JOINT LeftHandRing1
                      {
                        OFFSET 0 -7.75 -0.2
                        CHANNELS 6 Xposition Yposition Zposition Zrotation Xrotation Yrotation
                        JOINT LeftHandRing2
                        {
                          OFFSET 0 -3.8 0
                          CHANNELS 6 Xposition Yposition Zposition Zrotation Xrotation Yrotation
                          JOINT LeftHandRing3
                          {
                            OFFSET 0 -3.4 0
                            CHANNELS 6 Xposition Yposition Zposition Zrotation Xrotation Yrotation
                            End Site
                            {
                              OFFSET 0 -2.6 0
                            }
                          }
                        }
                      }
                    }
                    JOINT LeftHandPinky
                    {
                      OFFSET -0.75 -1.75 -1.85
                      CHANNELS 6 Xposition Yposition Zposition Zrotation Xrotation Yrotation
                      JOINT LeftHandPinky1
                      {
                        OFFSET 0 -7.15 -1
                        CHANNELS 6 Xposition Yposition Zposition Zrotation Xrotation Yrotation
                        JOINT LeftHandPinky2
                        {
                          OFFSET 0 -3 0
                          CHANNELS 6 Xposition Yposition Zposition Zrotation Xrotation Yrotation
                          JOINT LeftHandPinky3
                          {
                            OFFSET 0 -2.35 0
                            CHANNELS 6 Xposition Yposition Zposition Zrotation Xrotation Yrotation
                            End Site
                            {
                              OFFSET 0 -2.1 0
                            }
                          }
                        }
                      }
                    }
                  }
                }
              }
            }
          }
          JOINT RightShoulder
          {
            OFFSET -5 17 0
            CHANNELS 6 Xposition Yposition Zposition Zrotation Xrotation Yrotation
            JOINT RightShoulder2
            {
              OFFSET -6.45 0 0
              CHANNELS 6 Xposition Yposition Zposition Zrotation Xrotation Yrotation
              JOINT RightArm
              {
                OFFSET -6.45 0 0
                CHANNELS 6 Xposition Yposition Zposition Zrotation Xrotation Yrotation
                JOINT RightForeArm
                {
                  OFFSET 0 -32.4 -2
                  CHANNELS 6 Xposition Yposition Zposition Zrotation Xrotation Yrotation
                  JOINT RightHand
                  {
                    OFFSET 0 -25.65 2
                    CHANNELS 6 Xposition Yposition Zposition Zrotation Xrotation Yrotation
                    JOINT RightHandThumb1
                    {
                      OFFSET 0.5 -1.5 2.65
                      CHANNELS 6 Xposition Yposition Zposition Zrotation Xrotation Yrotation
                      JOINT RightHandThumb2
                      {
                        OFFSET 0 -3.8 3.7
                        CHANNELS 6 Xposition Yposition Zposition Zrotation Xrotation Yrotation
                        JOINT RightHandThumb3
                        {
                          OFFSET 0 -3 2.7
                          CHANNELS 6 Xposition Yposition Zposition Zrotation Xrotation Yrotation
                          End Site
                          {
                            OFFSET 0 -2.3 1.8
                          }
                        }
                      }
                    }
                    JOINT RightHandIndex
                    {
                      OFFSET 0 -1.9 1.6
                      CHANNELS 6 Xposition Yposition Zposition Zrotation Xrotation Yrotation
                      JOINT RightHandIndex1
                      {
                        OFFSET 0 -8.3 1.9
                        CHANNELS 6 Xposition Yposition Zposition Zrotation Xrotation Yrotation
                        JOINT RightHandIndex2
                        {
                          OFFSET 0 -4.5 0
                          CHANNELS 6 Xposition Yposition Zposition Zrotation Xrotation Yrotation
                          JOINT RightHandIndex3
                          {
                            OFFSET 0 -3.4 0
                            CHANNELS 6 Xposition Yposition Zposition Zrotation Xrotation Yrotation
                            End Site
                            {
                              OFFSET 0 -2.6 0
                            }
                          }
                        }
                      }
                    }
                    JOINT RightHandMiddle
                    {
                      OFFSET 0.25 -2.2 0.4
                      CHANNELS 6 Xposition Yposition Zposition Zrotation Xrotation Yrotation
                      JOINT RightHandMiddle1
                      {
                        OFFSET 0 -8.3 1
                        CHANNELS 6 Xposition Yposition Zposition Zrotation Xrotation Yrotation
                        JOINT RightHandMiddle2
                        {
                          OFFSET 0 -4.65 0
                          CHANNELS 6 Xposition Yposition Zposition Zrotation Xrotation Yrotation
                          JOINT RightHandMiddle3
                          {
                            OFFSET 0 -3.3 0
                            CHANNELS 6 Xposition Yposition Zposition Zrotation Xrotation Yrotation
                            End Site
                            {
                              OFFSET 0 -2.7 0
                            }
                          }
                        }
                      }
                    }
                    JOINT RightHandRing
                    {
                      OFFSET 0.5 -2.15 -0.8
                      CHANNELS 6 Xposition Yposition Zposition Zrotation Xrotation Yrotation
                      JOINT RightHandRing1
                      {
                        OFFSET 0 -7.75 -0.2
                        CHANNELS 6 Xposition Yposition Zposition Zrotation Xrotation Yrotation
                        JOINT RightHandRing2
                        {
                          OFFSET 0 -3.8 0
                          CHANNELS 6 Xposition Yposition Zposition Zrotation Xrotation Yrotation
                          JOINT RightHandRing3
                          {
                            OFFSET 0 -3.4 0
                            CHANNELS 6 Xposition Yposition Zposition Zrotation Xrotation Yrotation
                            End Site
                            {
                              OFFSET 0 -2.6 0
                            }
                          }
                        }
                      }
                    }
                    JOINT RightHandPinky
                    {
                      OFFSET 0.75 -1.75 -1.85
                      CHANNELS 6 Xposition Yposition Zposition Zrotation Xrotation Yrotation
                      JOINT RightHandPinky1
                      {
                        OFFSET 0 -7.15 -1
                        CHANNELS 6 Xposition Yposition Zposition Zrotation Xrotation Yrotation
                        JOINT RightHandPinky2
                        {
                          OFFSET 0 -3 0
                          CHANNELS 6 Xposition Yposition Zposition Zrotation Xrotation Yrotation
                          JOINT RightHandPinky3
                          {
                            OFFSET 0 -2.35 0
                            CHANNELS 6 Xposition Yposition Zposition Zrotation Xrotation Yrotation
                            End Site
                            {
                              OFFSET 0 -2.1 0
                            }
                          }
                        }
                      }
                    }
                  }
                }
              }
            }
          }
        }
      }
    }
  }
  JOINT LeftUpLeg
  {
    OFFSET 8 0 0
    CHANNELS 6 Xposition Yposition Zposition Zrotation Xrotation Yrotation
    JOINT LeftLeg
    {
      OFFSET 0 -45 -1
      CHANNELS 6 Xposition Yposition Zposition Zrotation Xrotation Yrotation
      JOINT LeftFoot
      {
        OFFSET 0 -41 -2
        CHANNELS 6 Xposition Yposition Zposition Zrotation Xrotation Yrotation
        JOINT LeftToeBase
        {
          OFFSET 0 -7.5 12.5
          CHANNELS 6 Xposition Yposition Zposition Zrotation Xrotation Yrotation
          JOINT LeftFootToe
          {
            OFFSET 0 0 4
            CHANNELS 6 Xposition Yposition Zposition Zrotation Xrotation Yrotation
            End Site
            {
              OFFSET 0 0 0
            }
          }
        }
      }
    }
  }
  JOINT RightUpLeg
  {
    OFFSET -8 0 0
    CHANNELS 6 Xposition Yposition Zposition Zrotation Xrotation Yrotation
    JOINT RightLeg
    {
      OFFSET 0 -45 -1
      CHANNELS 6 Xposition Yposition Zposition Zrotation Xrotation Yrotation
      JOINT RightFoot
      {
        OFFSET 0 -41 -2
        CHANNELS 6 Xposition Yposition Zposition Zrotation Xrotation Yrotation
        JOINT RightToeBase
        {
          OFFSET 0 -7.5 12.5
          CHANNELS 6 Xposition Yposition Zposition Zrotation Xrotation Yrotation
          JOINT RightFootToe
          {
            OFFSET 0 0 4
            CHANNELS 6 Xposition Yposition Zposition Zrotation Xrotation Yrotation
            End Site
            {
              OFFSET 0 0 0
            }
          }
        }
      }
    }
  }
}
MOTION
Frames:	3
Frame Time:	0.0111111
-147.426 71.819 1361.59 -1.76732 6.25135 -168.925 0 8 2.27374e-13 8.8146 8.90119 -5.4493 -5.68434e-14 8 0 4.33473 6.12175 -3.32335 0 8 -2.27374e-13 2.1225 3.09598 -1.60338 -1.13687e-13 8 0 2.11708 3.08825 -1.59921 -2.84217e-14 17 -2.27374e-13 5.49564 0.382585 -9.6319 5.68434e-14 10.8 0 12.8647 -0.566202 -22.6055 5 17 0 -0.544325 0.699293 -8.73037 6.45 0 -2.27374e-13 -1.41815 0.0650694 -1.0712 6.45 5.68434e-14 0 58.6494 -6.06189 -3.2806 0 -32.4 -2 -13.9998 -66.0831 -19.7811 -1.13687e-13 -25.65 2 -5.10586 -19.7709 -19.3405 -0.5 -1.5 2.65 -45.6976 -32.6726 33.2533 0 -3.8 3.7 -0.156854 7.11945 0.0129969 0 -3 2.7 -0.0277899 62.6254 0.110972 0 -1.9 1.6 -6.36111e-15 3.18055e-15 1.59028e-15 -1.13687e-13 -8.3 1.9 -20.6022 -11.628 -1.8925 -2.27374e-13 -4.5 5.68434e-14 -72.3494 0.00995781 -0.00827497 0 -3.4 5.68434e-14 -55.2813 0.0127673 0.00422661 -0.25 -2.2 0.4 -6.36111e-15 3.18055e-15 1.59028e-15 0 -8.3 1 -49.2086 23.0544 13.6878 0 -4.65 0 -49.2436 0.0317594 0.0519678 0 -3.3 0 -90.0002 -5.81568e-05 -5.76476e-15 -0.5 -2.15 -0.8 -6.36111e-15 3.18055e-15 1.59028e-15 0 -7.75 -0.2 -79.594 5.14836 12.0794 4.54747e-13 -3.8 -1.42109e-14 -30.4549 0.0079301 -0.0308423 1.13687e-13 -3.4 1.42109e-14 -90.0002 0.00281162 -1.35174e-14 -0.75 -1.75 -1.85 -6.36111e-15 3.18055e-15 1.59028e-15 1.13687e-13 -7.15 -1 -83.4795 5.49207 15.8147 -2.27374e-13 -3 -5.68434e-14 -44.9686 0.0332883 -0.0377599 -5.68434e-14 -2.35 2.84217e-14 -31.2198 0.0303105 -0.0100783 -5 17 -2.27374e-13 10.7822 -3.65651 -3.53665 -6.45 0 -2.27374e-13 -1.11597 -0.450017 -2.51373 -6.45 -2.84217e-14 0 -49.8372 -13.2204 -10.6082 -1.42109e-14 -32.4 -2 -17.3316 -25.4985 -1.49992 2.84217e-14 -25.65 2 -18.6473 -15.81 45.8495 0.5 -1.5 2.65 34.6925 -1.16971 -127.29 0 -3.8 3.7 0.563068 48.1094 0.0350739 0 -3 2.7 0.0908833 56.0999 -0.0714124 -5.68434e-14 -1.9 1.6 6.36111e-15 9.54166e-15 -0 0 -8.3 1.9 15.0998 -17.7075 2.23857 0 -4.5 1.13687e-13 6.63358 -0.0595874 -0.0656097 0 -3.4 0 6.02349 -0.0555861 -0.0486258 0.25 -2.2 0.4 6.36111e-15 9.54166e-15 -0 0 -8.3 1 5.11298 -7.90703 0.245766 0 -4.65 -1.13687e-13 83.0238 -0.0414412 0.0309102 2.27374e-13 -3.3 0 72.0254 0.0343258 0.102844 0.5 -2.15 -0.8 6.36111e-15 9.54166e-15 -0 0 -7.75 -0.2 3.55215 3.80917 -0.251679 0 -3.8 -1.13687e-13 72.7173 -0.0089824 0.000573692 1.13687e-13 -3.4 -3.41061e-13 55.1975 -0.00578088 0.00973685 0.75 -1.75 -1.85 6.36111e-15 9.54166e-15 -0 0 -7.15 -1 3.22298 10.6916 -0.585092 -1.13687e-13 -3 4.54747e-13 69.7167 -0.0253673 -0.00835722 0 -2.35 2.27374e-13 51.7999 -0.0250597 0.0173029 8 0 0 -10.4901 -55.473 -17.5712 2.84217e-14 -45 -1 -0.649306 65.71 1.07762 0 -41 -2 -3.79741 -1.85703 6.94287 0 -7.5 12.5 7.95139e-16 0 4.77083e-15 -5.68434e-14 -7.10543e-15 4 -2.34428 0.42008 -0.626996 -8 0 4.54747e-13 -23.062 -52.1036 -20.0559 0 -45 -1 24.8807 80.9149 -29.8621 8.52651e-14 -41 -2 -5.14909 0.665254 21.6833 0 -7.5 12.5 -1.44004e-16 -22.2665 1.71842e-15 -5.68434e-14 0 4 23.2729 17.826 -7.47714 
-147.479 71.7929 1361.57 -1.74311 6.35967 -169.103 5.68434e-14 8 0 8.97937 8.85836 -5.56396 -5.68434e-14 8 0 4.3595 6.11506 -3.29519 -5.68434e-14 8 -2.27374e-13 2.13542 3.096 -1.58904 -5.68434e-14 8 0 2.12995 3.08828 -1.58491 2.84217e-14 17 -2.27374e-13 5.49634 0.360184 -9.5711 0 10.8 0 12.8609 -0.608868 -22.4584 5 17 0 -0.457857 0.579655 -8.48432 6.45 0 0 -1.42632 0.0474707 -1.07437 6.45 0 -2.27374e-13 58.4409 -6.48071 -3.74975 0 -32.4 -2 -13.2256 -65.1378 -19.2548 -1.13687e-13 -25.65 2 -5.97147 -19.6658 -19.4618 -0.5 -1.5 2.65 -45.3904 -32.2839 33.6036 0 -3.8 3.7 -0.156795 6.86264 0.0129898 0 -3 2.7 -0.0117523 61.3226 0.0675374 1.13687e-13 -1.9 1.6 -6.36111e-15 3.18055e-15 -0 -1.13687e-13 -8.3 1.9 -20.4293 -12.0675 -1.95548 0 -4.5 0 -74.0559 0.00151994 0.00532024 -2.27374e-13 -3.4 0 -57.4595 -0.00752673 0.00480254 -0.25 -2.2 0.4 -6.36111e-15 3.18055e-15 -0 1.13687e-13 -8.3 1 -48.546 22.7847 13.2978 -2.27374e-13 -4.65 0 -50.8541 0.0124907 0.0398157 1.13687e-13 -3.3 0 -90.0002 -5.81568e-05 -2.46493e-14 -0.5 -2.15 -0.8 -6.36111e-15 3.18055e-15 -0 0 -7.75 -0.2 -79.3885 5.0045 11.8703 2.27374e-13 -3.8 -2.84217e-14 -29.0035 0.0241623 -0.0353323 0 -3.4 0 -90.0002 0.00281162 -4.77083e-15 -0.75 -1.75 -1.85 -6.36111e-15 3.18055e-15 -0 1.13687e-13 -7.15 -1 -82.8605 5.69379 15.625 0 -3 -2.84217e-14 -43.2699 0.0625556 -0.0434975 0 -2.35 2.84217e-14 -30.1622 0.0475721 -0.00459665 -5 17 -4.54747e-13 10.747 -3.64676 -3.52188 -6.45 0 -4.54747e-13 -1.11636 -0.459929 -2.50818 -6.45 0 -2.27374e-13 -50.4374 -13.9427 -10.2496 -2.84217e-14 -32.4 -2 -17.0938 -24.6709 -1.45684 2.84217e-14 -25.65 2 -17.7014 -14.244 46.0589 0.5 -1.5 2.65 33.1161 -1.55017 -126.091 -2.27374e-13 -3.8 3.7 0.563194 47.831 0.0348853 0 -3 2.7 0.0909598 56.1341 -0.0714759 0 -1.9 1.6 4.77083e-15 6.36111e-15 3.18055e-15 0 -8.3 1.9 15.226 -16.471 2.1442 -1.13687e-13 -4.5 1.13687e-13 7.83695 -0.0769986 -0.103775 1.13687e-13 -3.4 -1.13687e-13 6.99384 -0.07327 -0.0752941 0.25 -2.2 0.4 4.77083e-15 6.36111e-15 3.18055e-15 -1.13687e-13 -8.3 1 6.8038 -7.63324 0.337215 1.13687e-13 -4.65 -1.13687e-13 84.2322 -0.0510137 0.0287685 0 -3.3 0 74.5302 0.0292989 0.126286 0.5 -2.15 -0.8 4.77083e-15 6.36111e-15 3.18055e-15 0 -7.75 -0.2 5.45658 3.69859 -0.36797 1.13687e-13 -3.8 -1.13687e-13 73.3211 -0.00858115 -0.00065871 -1.13687e-13 -3.4 1.13687e-13 55.9504 -0.00697003 0.00863832 0.75 -1.75 -1.85 4.77083e-15 6.36111e-15 3.18055e-15 0 -7.15 -1 5.07437 10.3199 -0.815371 0 -3 2.27374e-13 70.5154 -0.0289481 0.000937305 -1.13687e-13 -2.35 0 52.6251 -0.0134034 0.0200844 8 0 0 -10.5282 -55.3415 -17.6717 5.68434e-14 -45 -1 -0.659043 65.8388 1.09091 2.84217e-14 -41 -2 -3.80904 -2.05946 7.51422 0 -7.5 12.5 2.98177e-16 -5.96354e-16 1.59028e-15 0 -7.10543e-15 4 -2.38381 0.456509 -0.701522 -8 0 0 -23.0508 -52.0845 -20.047 1.42109e-14 -45 -1 25.0339 80.9676 -30.0127 1.42109e-13 -41 -2 -5.11013 0.660871 21.6792 -5.68434e-14 -7.5 12.5 7.95139e-16 -22.2936 -0 0 0 4 23.2836 17.8377 -7.50695 
-147.524 71.7567 1361.55 -1.70491 6.47353 -169.285 5.68434e-14 8 2.27374e-13 9.15931 8.81503 -5.71546 0 8 0 4.38426 6.1102 -3.26529 -2.84217e-14 8 -2.27374e-13 2.14829 3.09603 -1.57381 -8.52651e-14 8 0 2.14281 3.0883 -1.56972 0 17 -2.27374e-13 5.49398 0.339673 -9.49939 8.52651e-14 10.8 0 12.8508 -0.644769 -22.2858 5 17 0 -0.382576 0.469542 -8.21443 6.45 -1.13687e-13 -4.54747e-13 -1.43865 0.0334585 -1.07522 6.45 5.68434e-14 2.27374e-13 58.2108 -6.88132 -4.23768 -5.68434e-14 -32.4 -2 -12.4759 -64.2768 -18.7705 -1.13687e-13 -25.65 2 -6.63129 -19.4584 -19.5376 -0.5 -1.5 2.65 -45.0867 -31.9168 33.9282 2.27374e-13 -3.8 3.7 -0.156154 6.66952 0.012531 0 -3 2.7 -0.00602911 60.1542 0.0295568 1.13687e-13 -1.9 1.6 -3.18055e-15 0 -1.59028e-15 -1.13687e-13 -8.3 1.9 -20.2386 -12.4406 -2.00746 0 -4.5 -5.68434e-14 -75.807 -0.0141816 0.00949548 0 -3.4 0 -59.8382 -0.023555 -0.0113447 -0.25 -2.2 0.4 -3.18055e-15 0 -1.59028e-15 -1.13687e-13 -8.3 1 -47.9744 22.4141 12.8915 0 -4.65 2.84217e-14 -52.3378 -0.00352082 0.0233571 -2.27374e-13 -3.3 0 -90.0002 -5.81568e-05 -2.74323e-14 -0.5 -2.15 -0.8 -3.18055e-15 0 -1.59028e-15 0 -7.75 -0.2 -79.2349 4.81431 11.6477 0 -3.8 -1.42109e-14 -27.4728 0.039525 -0.0277588 0 -3.4 2.84217e-14 -90.0002 0.00281162 -7.15625e-15 -0.75 -1.75 -1.85 -3.18055e-15 0 -1.59028e-15 -1.13687e-13 -7.15 -1 -82.2529 5.89521 15.4556 0 -3 -2.84217e-14 -41.6328 0.0803495 -0.0319427 0 -2.35 5.68434e-14 -29.1396 0.0533029 0.00669139 -5 17 -2.27374e-13 10.6987 -3.63364 -3.49935 -6.45 2.84217e-14 -2.27374e-13 -1.12213 -0.464815 -2.49855 -6.45 0 0 -51.0884 -14.6601 -9.73846 -2.84217e-14 -32.4 -2 -16.8257 -23.7519 -1.36295 0 -25.65 2 -16.8754 -12.5969 46.1489 0.5 -1.5 2.65 31.4415 -2.02238 -124.982 0 -3.8 3.7 0.554397 47.703 0.0347996 0 -3 2.7 0.0909598 56.1341 -0.0714759 0 -1.9 1.6 0 9.54166e-15 -0 0 -8.3 1.9 15.4966 -14.978 2.00696 -1.13687e-13 -4.5 1.13687e-13 9.29823 -0.0775909 -0.15207 0 -3.4 -1.13687e-13 8.13833 -0.0791794 -0.109196 0.25 -2.2 0.4 0 9.54166e-15 -0 -1.13687e-13 -8.3 1 8.79496 -7.09309 0.407807 1.13687e-13 -4.65 -2.27374e-13 85.3242 -0.0546986 0.0149591 1.13687e-13 -3.3 0 76.9923 0.00197539 0.135606 0.5 -2.15 -0.8 0 9.54166e-15 -0 0 -7.75 -0.2 8.01348 3.60914 -0.53429 0 -3.8 -1.13687e-13 74.3974 -0.0085192 -0.0193611 0 -3.4 0 57.5338 -0.0319285 -0.00531096 0.75 -1.75 -1.85 0 9.54166e-15 -0 0 -7.15 -1 7.76437 9.77292 -1.13162 0 -3 2.27374e-13 70.772 -0.0322973 0.0113244 0 -2.35 0 52.8995 -0.00392821 0.0279177 8 2.84217e-14 0 -10.5056 -55.2186 -17.7039 2.84217e-14 -45 -1 -0.709678 65.9753 1.17088 0 -41 -2 -3.78948 -2.26042 8.03714 0 -7.5 12.5 7.45443e-16 0 1.59028e-15 0 7.10543e-15 4 -2.43411 0.492213 -0.692858 -8 0 4.54747e-13 -23.0396 -52.0655 -20.0381 2.84217e-14 -45 -1 25.2314 81.0346 -30.2068 1.13687e-13 -41 -2 -5.07111 0.655548 21.6605 -5.68434e-14 -7.5 12.5 -4.26449e-16 -22.3237 5.15736e-15 0 8.88178e-16 4 23.2883 17.8511 -7.53326 
